<svg version="1.1" id="Layer_1" xmlns="http://www.w3.org/2000/svg" xmlns:xlink="http://www.w3.org/1999/xlink" x="0px" y="0px"
	 width="100%" viewBox="0 0 704 704" enable-background="new 0 0 704 704" xml:space="preserve">
<path fill="#2e4885" opacity="1.000000" stroke="none" 
	d="
M310.760620,139.629822 
	C312.883911,139.539474 314.565002,139.580841 316.203766,139.337387 
	C321.190430,138.596527 322.765686,136.449539 320.904846,131.809021 
	C319.356445,127.947586 320.882904,127.024109 324.202728,126.688278 
	C332.986206,125.799736 341.787811,125.424614 350.608948,125.756760 
	C356.916626,125.994263 358.845062,128.053955 359.371460,134.182617 
	C359.769379,138.815613 360.562469,143.413544 361.117096,148.034592 
	C361.542633,151.579971 359.969025,153.329620 356.328156,153.362305 
	C346.050659,153.454559 335.771973,153.552444 325.497864,153.811584 
	C322.109589,153.897049 321.037231,151.855240 320.789734,149.208023 
	C320.352478,144.530853 317.844940,142.895187 313.401520,143.325821 
	C308.433838,143.807236 303.442291,144.044220 298.476349,144.540283 
	C294.726379,144.914902 292.538239,146.820038 292.067413,150.876495 
	C291.084686,159.343124 291.275085,167.825378 291.272247,176.307251 
	C291.262634,204.795456 291.367096,233.283951 291.249634,261.771576 
	C291.232910,265.828491 292.697845,268.087677 296.249786,269.973938 
	C307.799164,276.107239 317.205139,284.629608 326.249115,294.236481 
	C333.083313,301.496063 335.735138,310.838318 342.153564,317.987885 
	C344.030884,320.079041 346.193146,321.783325 348.223297,323.576843 
	C347.333405,325.816254 345.337128,323.983307 343.956055,325.175812 
	C344.660034,325.829102 345.170166,326.477173 345.828979,326.885040 
	C349.608185,329.224701 358.938049,328.976532 359.191986,326.267090 
	C359.625244,321.643921 363.399261,319.289001 364.588501,315.509735 
	C368.524200,303.002655 377.987793,294.745605 387.739716,287.458069 
	C394.599030,282.332153 401.485291,277.093750 408.652435,272.372070 
	C408.273315,270.601440 406.760895,272.582214 406.152405,270.620453 
	C406.502167,269.337646 408.277649,268.610992 409.886200,268.174835 
	C413.874176,267.093323 414.678253,264.496399 414.797607,260.685547 
	C415.100739,251.004684 413.852020,241.403976 413.777405,231.758179 
	C413.728790,225.477951 414.858551,224.698044 421.136169,224.604782 
	C426.954895,224.518372 432.774811,224.167160 438.581665,223.755539 
	C441.925751,223.518478 443.879486,220.123260 442.135071,216.163300 
	C440.074341,211.485367 442.220490,210.621933 445.998993,210.226822 
	C453.650818,209.426666 461.316467,209.891449 468.973846,209.973785 
	C472.860229,210.015579 475.141968,212.328156 475.710663,216.095444 
	C476.509369,221.386597 476.367218,226.728973 476.202240,232.061539 
	C476.115784,234.855545 474.743439,236.101166 471.882446,236.448242 
	C463.754578,237.434250 455.613251,236.280670 447.477661,236.909164 
	C441.334106,237.383774 440.530273,232.490860 439.838776,227.747742 
	C433.639038,227.588547 427.746552,228.456192 421.835327,229.146301 
	C418.848724,229.494980 418.429016,231.775772 418.468079,233.873642 
	C418.629059,242.517639 418.982635,251.159744 419.392334,259.796539 
	C419.548279,263.083618 421.862244,262.461884 423.731934,261.605072 
	C427.965271,259.665070 432.097748,257.505219 436.272034,255.436249 
	C442.379852,252.408920 448.605011,251.430496 455.566925,252.213379 
	C460.642151,252.784103 465.975922,251.055771 471.657593,250.289917 
	C469.775146,248.516220 467.343719,249.860031 465.734283,247.973907 
	C468.086823,245.556778 471.386505,246.417725 473.913361,246.327942 
	C483.143341,246.000046 493.205048,242.650436 501.429474,246.717499 
	C510.017426,250.964310 518.809937,247.613846 527.392212,251.372818 
	C527.837585,246.883514 528.360962,243.006836 528.562805,239.113510 
	C528.713501,236.206161 530.253357,234.462265 532.648132,233.355194 
	C543.003052,228.568253 553.279663,234.130951 555.270630,245.115829 
	C556.673706,252.857178 557.202576,260.625488 557.080444,268.419861 
	C556.882385,281.049713 559.504578,293.670654 557.185486,306.296570 
	C556.633789,309.300476 557.241333,312.689026 554.105286,314.837646 
	C553.048584,315.561584 553.237549,317.027466 553.438416,318.123993 
	C554.648132,324.728943 553.878174,331.424957 554.471375,338.530884 
	C557.462952,337.688568 557.991394,339.075775 557.834412,341.880920 
	C557.127930,354.502838 556.655457,367.122925 558.091431,379.757385 
	C558.632568,384.518768 558.821533,389.422668 557.411926,394.157013 
	C554.423889,404.192688 555.123169,414.157013 557.716370,424.153625 
	C559.297119,430.246979 559.094543,436.366577 557.022034,442.357880 
	C554.486389,449.687897 548.421448,453.221161 540.063232,452.284302 
	C533.966980,451.601013 528.364929,445.729614 527.715149,439.079468 
	C527.387146,435.721924 526.399902,432.651428 525.002014,429.384094 
	C513.829651,431.768433 502.924805,433.693909 491.774811,434.511322 
	C471.972046,435.963043 452.990814,432.746857 434.392609,426.346649 
	C419.080353,421.077271 405.735107,412.285645 392.882538,402.721375 
	C383.973450,396.091675 379.495453,385.836273 372.962433,377.262848 
	C370.437927,373.949890 368.177734,370.447449 365.045288,367.640472 
	C357.881897,361.221161 349.679871,361.294586 342.793091,368.046875 
	C337.053253,373.674713 332.071808,379.951630 328.633118,387.252350 
	C321.167725,403.101990 307.149719,411.671448 292.393921,418.739258 
	C265.200470,431.764648 236.111038,436.757080 206.076309,436.218750 
	C199.790863,436.106079 193.508163,435.054047 187.255066,434.206940 
	C183.192871,433.656647 180.977158,434.924316 180.357224,439.182495 
	C178.064117,454.933105 163.926727,454.914764 154.442657,449.746948 
	C151.329651,448.050629 149.848465,445.048126 149.652161,441.458282 
	C149.459290,437.931732 149.999359,434.480682 150.683441,431.051514 
	C152.337677,422.759094 149.113724,414.910034 148.480392,406.822144 
	C147.489151,394.163452 147.844193,381.593506 149.097809,368.979034 
	C150.118469,358.708527 150.733047,348.234711 149.340530,338.092987 
	C146.596802,318.110291 146.690918,298.085510 146.823853,278.056152 
	C146.890793,267.970306 147.132584,257.824341 148.680634,247.768372 
	C149.844833,240.205612 153.572083,236.633270 161.333038,236.623062 
	C170.391937,236.611145 175.437744,240.297455 176.179688,247.841171 
	C176.478531,250.879654 177.480194,251.952164 180.601318,251.343643 
	C194.997208,248.536850 209.368179,250.802063 223.713898,251.945648 
	C229.582214,252.413452 230.726410,251.705032 230.844345,245.769211 
	C231.036072,236.120392 229.182739,226.506271 230.500534,216.835449 
	C230.881439,214.040176 229.507919,212.268173 226.473831,212.504715 
	C219.195801,213.072128 211.917175,213.657181 204.656052,214.403183 
	C201.997406,214.676315 201.349731,216.843018 201.142487,219.160995 
	C200.850418,222.428009 199.135880,224.255386 195.800232,224.689850 
	C185.833145,225.988129 175.836182,225.606918 165.884674,224.884567 
	C161.171219,224.542419 158.749359,220.885559 158.932953,216.049164 
	C159.134796,210.732437 159.548569,205.422028 159.663025,200.104401 
	C159.732513,196.875748 161.206558,195.884033 164.304779,195.737747 
	C175.449753,195.211594 186.550583,197.774902 197.715836,196.049713 
	C200.550644,195.611710 201.231262,197.616730 201.360794,200.164307 
	C201.921082,211.182800 201.960617,211.031097 212.916794,209.912048 
	C218.366470,209.355408 223.808105,208.360046 229.347748,208.836578 
	C233.127625,209.161743 235.028641,210.857513 235.025620,214.866577 
	C235.017441,225.661697 235.312820,236.457397 235.267471,247.251953 
	C235.250900,251.195358 236.952942,253.036774 240.713303,253.554077 
	C253.935272,255.373062 266.877167,258.339203 279.499115,262.764404 
	C285.266998,264.786621 286.493469,263.467529 286.495026,257.415863 
	C286.503357,224.453247 286.602020,191.490494 286.769897,158.528290 
	C286.789276,154.722534 287.399231,150.916718 287.793365,147.116959 
	C288.067902,144.470001 288.898499,142.217957 292.018585,141.757401 
	C298.090729,140.861069 304.092957,139.374207 310.760620,139.629822 
M430.452789,278.370636 
	C431.329102,278.729523 432.508911,278.366943 433.124847,279.529388 
	C431.666931,280.661255 429.936279,279.938293 428.385895,280.271484 
	C420.007477,282.072052 419.133484,283.896179 419.686523,290.225708 
	C420.231354,296.461090 419.983459,302.789825 419.702667,309.060577 
	C419.599365,311.367096 420.720581,311.942535 422.328247,312.575409 
	C428.217773,314.893677 431.037323,319.511475 431.924072,325.525391 
	C432.647797,330.433838 432.719910,335.329132 432.744019,340.320007 
	C432.805634,353.077698 435.395569,365.681458 437.748077,378.219330 
	C438.423065,381.816864 441.505402,384.054504 445.324463,384.612732 
	C448.893799,385.134399 450.394531,382.374115 451.707825,379.956787 
	C453.520966,376.619385 455.174316,373.174866 455.846588,369.322449 
	C456.643921,364.753296 457.533966,360.179016 458.769257,355.713562 
	C460.017334,351.202026 462.982910,347.979736 467.875427,347.707550 
	C472.581665,347.445740 475.632385,350.117645 477.309448,354.470093 
	C478.330170,357.119141 479.217194,359.746674 479.366150,362.643555 
	C479.703156,369.198517 481.777802,375.353119 484.169312,381.393860 
	C485.342651,384.357666 487.624176,385.934235 490.847473,385.295258 
	C496.709106,384.133240 501.735596,375.559784 500.105316,369.863129 
	C499.638763,368.232880 500.118896,366.717896 500.589539,365.059387 
	C501.927185,360.345886 503.809418,355.823181 504.133667,350.746613 
	C504.511993,344.823212 504.715363,339.020325 504.097412,333.075653 
	C503.527435,327.592499 501.895782,322.606018 499.708405,317.682159 
	C498.338318,314.598114 495.399048,311.145752 496.006897,308.515625 
	C496.783356,305.155762 495.510651,304.140747 492.887329,302.567200 
	C495.318695,301.333984 497.749115,300.115479 495.155060,297.674408 
	C489.735992,292.574982 484.970795,286.841217 478.431122,282.867188 
	C464.386688,274.332642 449.223175,273.776093 433.632812,275.714355 
	C429.672729,276.206665 425.453491,275.896851 420.889221,278.668701 
	C424.519867,278.544769 427.112762,277.414978 430.452789,278.370636 
M212.569168,380.374176 
	C215.053925,388.320679 219.397659,394.296936 226.463501,399.528992 
	C244.126450,412.608002 263.442078,414.598816 283.704865,409.919464 
	C297.432373,406.749268 308.532745,398.865723 315.612976,385.973053 
	C319.633881,378.651184 319.982727,378.156647 312.428741,375.451904 
	C307.717438,373.764984 305.374481,370.354218 304.298584,366.167511 
	C302.004425,357.240021 299.522583,348.506409 299.120972,338.964905 
	C298.580505,326.123688 295.345215,313.382111 293.048492,300.637085 
	C292.373138,296.889465 291.286316,292.296783 286.410431,292.664612 
	C281.862854,293.007690 280.235504,297.186737 279.414154,301.321228 
	C279.317200,301.809265 279.288116,302.311920 279.244354,302.809265 
	C277.221405,325.809326 273.187195,348.629028 273.116516,371.805847 
	C273.097565,378.024994 270.397034,383.072540 265.646484,386.973114 
	C261.134888,390.677429 255.607178,390.825287 251.455765,387.291504 
	C247.367447,383.811462 244.812424,379.407013 244.679382,373.899902 
	C244.525543,367.532013 243.188187,361.340942 241.397202,355.315979 
	C240.171478,351.192627 239.424866,346.040924 234.066788,344.956482 
	C230.688492,344.272766 226.178329,349.743011 224.525345,355.920044 
	C222.234787,364.479675 219.248138,372.511108 210.375748,375.931458 
	C210.120529,378.077423 211.794983,378.549896 212.569168,380.374176 
M417.089294,318.745026 
	C411.961700,321.171265 409.939331,325.165558 410.248566,330.847504 
	C410.719330,339.496674 410.421112,348.161896 408.986633,356.728668 
	C407.656219,364.673553 405.582794,372.382385 399.891388,378.499146 
	C397.695312,380.859436 397.600708,383.243835 399.342499,385.715576 
	C403.192413,391.178925 406.395966,397.909912 413.219025,399.654205 
	C417.058746,400.635773 419.496246,404.881683 423.858398,403.263489 
	C424.714600,408.115601 426.249359,409.951874 430.997681,410.543945 
	C449.943695,412.906311 468.781097,413.747223 485.753998,402.694672 
	C490.756714,399.436951 494.976288,395.138672 498.628143,389.694580 
	C497.269501,389.494995 496.760010,389.276978 496.323242,389.376923 
	C484.962402,391.976044 478.470123,387.823364 476.500763,376.480133 
	C475.394043,370.105469 473.501740,363.855194 473.517303,357.290009 
	C473.522003,355.309631 472.439789,353.729889 470.306305,353.426880 
	C468.390503,353.154755 467.243896,354.406830 466.354279,355.921631 
	C465.572479,357.252899 465.420441,358.720673 465.269043,360.228973 
	C464.513245,367.758179 462.336884,374.850311 458.789337,381.556763 
	C455.286011,388.179718 449.629669,391.815491 443.746796,390.961151 
	C436.812469,389.954041 432.810974,386.038452 431.720154,377.714111 
	C429.781891,362.922241 426.198242,348.328522 426.858887,333.202240 
	C427.216156,325.022034 423.661194,320.095581 417.089294,318.745026 
M271.818634,311.527710 
	C272.263184,307.570282 272.233459,303.484161 273.264343,299.685852 
	C274.779755,294.102325 276.696259,288.501801 282.817078,285.933319 
	C284.246033,285.333679 286.326660,285.052399 286.085480,282.782257 
	C285.842163,280.491974 283.954712,280.108337 282.088623,279.731567 
	C268.840271,277.056763 255.662933,276.950836 242.662231,281.032593 
	C238.863174,282.225342 233.140213,282.340576 236.611923,289.151398 
	C236.774902,289.471130 236.250320,290.081085 236.231323,290.563202 
	C236.048706,295.201385 235.669174,299.847748 235.798248,304.479187 
	C236.125061,316.205353 236.621170,327.923798 235.089417,339.613892 
	C242.665192,343.090973 245.844543,346.701202 247.346680,354.303223 
	C248.531006,360.296875 249.389633,366.357117 250.301346,372.401611 
	C250.962692,376.786255 253.056259,380.212219 256.840271,382.497559 
	C258.442780,383.465393 260.326660,384.148499 261.857880,382.411438 
	C264.142273,379.819855 266.551331,377.358856 266.789215,373.486694 
	C268.041199,353.103577 269.614258,332.744415 271.818634,311.527710 
M506.348511,255.940399 
	C502.184235,256.440704 498.222107,254.928345 494.227936,254.612885 
	C483.809143,253.790009 473.324677,254.195572 462.948212,256.052765 
	C450.416473,258.295715 438.794769,263.257263 427.029785,267.799377 
	C425.738678,268.297821 424.080658,268.576080 423.659393,270.404602 
	C425.323944,271.412415 426.919586,270.583557 428.484833,270.320282 
	C449.233978,266.830902 468.340698,270.990356 485.785278,282.692657 
	C501.130585,292.986725 510.692871,307.901459 517.356201,324.574707 
	C519.100891,328.940399 521.275574,331.080231 524.726929,332.952026 
	C525.983398,331.733368 525.848877,330.498566 525.810364,329.380096 
	C525.387390,317.109528 525.274414,304.805267 523.515137,292.634277 
	C522.528748,285.810577 522.448181,279.084686 523.480957,272.287415 
	C524.737793,264.015503 522.776855,260.757568 515.028198,257.673645 
	C512.523560,256.676788 509.915955,256.237274 506.348511,255.940399 
M264.901794,425.465363 
	C268.472778,423.976685 272.566772,423.738647 276.321716,420.865234 
	C275.084076,420.580322 274.477600,420.274292 273.910095,420.334625 
	C262.336029,421.565735 251.131683,419.661652 240.126831,416.284393 
	C223.379013,411.144714 208.983444,402.609863 200.239609,386.789978 
	C193.277664,374.194031 189.055252,360.178162 180.261093,349.048553 
	C180.919769,358.596405 181.365707,368.844482 181.901428,379.073700 
	C182.588028,392.183929 181.525131,405.307922 183.193176,418.438232 
	C184.214600,426.478516 184.142578,427.845551 192.011841,429.994995 
	C195.365753,430.911072 198.766922,431.620026 202.300354,431.735474 
	C223.174271,432.417694 243.855164,431.266937 264.901794,425.465363 
M199.705673,310.179199 
	C206.340286,297.165161 215.125763,286.135590 228.352203,279.231079 
	C229.779785,278.485870 230.806046,277.618317 230.787277,275.841644 
	C230.734558,270.851135 230.775513,265.859497 230.702667,260.869415 
	C230.672287,258.787567 229.926926,257.499725 227.388489,257.599823 
	C218.580582,257.947174 209.757568,257.949890 200.954788,258.380188 
	C187.682556,259.028931 180.536041,265.418396 180.050247,279.174316 
	C179.919067,282.888916 180.777863,286.407928 180.722961,290.057037 
	C180.520248,303.526825 180.446289,316.998505 180.331879,330.469574 
	C180.311554,332.861694 180.328995,335.254120 180.328995,337.646423 
	C180.734146,337.740234 181.139297,337.834015 181.544434,337.927826 
	C181.867050,334.733917 184.295197,333.052399 186.060593,330.944611 
	C187.948013,328.691162 190.570602,327.129791 191.514282,324.030457 
	C193.040939,319.016357 196.020996,314.794159 199.705673,310.179199 
M380.663879,318.042358 
	C379.925568,319.713776 379.027283,321.334778 378.481476,323.066833 
	C377.257721,326.950256 376.595245,330.753784 382.538361,332.366699 
	C380.048279,335.536133 382.425934,338.262726 382.462555,341.189697 
	C382.595581,351.825592 386.095795,361.691193 389.706482,371.484100 
	C391.656860,376.773804 394.834320,377.116882 398.495117,372.657257 
	C402.666595,367.575500 404.614044,361.590881 404.668060,355.090576 
	C404.727478,347.947449 404.496429,340.800507 404.317474,333.657135 
	C404.103149,325.101349 405.533936,317.341095 413.942230,312.777740 
	C415.110962,312.143433 415.520416,311.202698 415.311127,309.872467 
	C413.808533,300.319885 417.324951,290.298309 412.426392,280.804688 
	C405.866425,283.639984 399.762665,287.153412 395.125427,292.907227 
	C389.141846,300.331573 384.209991,308.345062 380.663879,318.042358 
M487.285675,411.974060 
	C468.838593,419.297546 449.560486,420.350983 429.879700,419.379028 
	C446.673706,428.793671 464.933685,430.498566 483.862793,431.465057 
	C483.256165,427.747955 485.176697,426.968536 488.111572,426.838776 
	C493.256104,426.611328 498.480835,426.553619 503.505066,425.571198 
	C516.210327,423.086853 520.249207,424.539795 524.281799,407.948242 
	C526.561401,398.569122 525.430481,389.093536 526.483459,379.695190 
	C527.321838,372.212097 526.652527,364.560089 526.652527,356.852783 
	C521.906677,357.740570 519.256653,360.192657 518.146240,364.621155 
	C516.033447,373.047211 513.437866,381.370880 508.719330,388.648102 
	C503.070740,397.359741 498.963470,407.676239 487.285675,411.974060 
M315.445862,299.926270 
	C308.183960,290.372894 295.074768,282.084686 289.969360,283.830292 
	C289.744141,285.378845 291.075195,285.696594 291.979187,286.321198 
	C297.164642,289.904266 300.327728,294.642242 301.149536,301.037109 
	C303.390564,318.476166 302.600342,336.173737 306.010468,353.544373 
	C307.010468,358.638428 309.014069,363.055786 311.475006,367.285370 
	C313.118195,370.109436 316.213165,372.282196 319.921539,371.314331 
	C323.411774,370.403412 323.083130,367.085999 323.430176,364.315857 
	C324.064758,359.250244 323.648041,354.166840 323.772186,349.101471 
	C324.095062,335.924896 321.527893,323.043091 320.436676,310.017334 
	C320.321075,308.638092 319.507507,307.406250 318.233673,306.858032 
	C315.269287,305.582214 315.252075,303.199249 315.445862,299.926270 
M231.249527,291.824524 
	C229.896027,286.785980 229.051270,286.444305 225.150772,289.385284 
	C224.089508,290.185455 222.928665,290.906097 222.039322,291.871277 
	C219.966660,294.120636 215.292847,295.528229 219.465225,299.962280 
	C220.528915,301.092712 218.926437,302.329987 218.210068,303.406525 
	C212.474625,312.025269 208.924255,321.677307 206.998459,331.650635 
	C204.965576,342.178436 206.166382,353.047852 206.160583,363.760193 
	C206.159485,365.794006 206.339050,369.294647 208.914566,370.151825 
	C211.255951,370.931091 213.080353,368.513275 214.733887,366.939301 
	C218.643326,363.217987 220.139847,358.165558 221.380814,353.208282 
	C222.616257,348.273193 225.438843,344.618744 228.946533,341.287384 
	C230.027618,340.260681 231.657547,339.440826 231.357910,337.764771 
	C230.079865,330.615814 232.027008,323.475281 231.421768,316.412262 
	C230.737518,308.427246 231.403625,300.505005 231.249527,291.824524 
M264.990326,261.509308 
	C257.124451,260.175140 249.269333,258.771088 241.385284,257.554657 
	C239.349167,257.240509 236.218002,256.555634 235.788498,259.221344 
	C234.939468,264.490845 234.689041,269.932343 236.187729,275.789429 
	C251.677094,271.180298 266.780243,269.979492 282.102081,272.788727 
	C283.401550,273.026947 284.931427,273.008759 285.357239,271.294403 
	C285.801147,269.507202 284.691986,268.363922 283.197998,267.825623 
	C277.411957,265.740723 271.584076,263.771881 264.990326,261.509308 
M167.978912,200.308624 
	C164.879913,199.973190 163.805878,201.781113 163.687103,204.468994 
	C163.540466,207.787582 163.713516,211.136505 163.335159,214.424774 
	C162.795944,219.111053 165.143814,220.803101 169.326874,220.962860 
	C174.643509,221.165878 180.112198,221.936188 185.247818,221.392670 
	C196.204254,220.233109 197.148499,223.256958 197.753082,209.451462 
	C197.789520,208.619614 197.788788,207.781921 197.892731,206.957962 
	C198.433929,202.667160 196.344864,200.439835 192.249771,200.869431 
	C184.405731,201.692291 176.677887,199.558304 167.978912,200.308624 
M368.449890,360.761597 
	C368.193024,355.535522 366.629211,350.677887 364.013794,346.199738 
	C359.471985,338.423218 349.039429,338.028625 344.416992,345.693817 
	C340.773987,351.734802 338.852264,358.517303 337.461456,367.173065 
	C346.237030,357.433472 355.150238,356.773895 364.803284,362.633087 
	C366.363342,363.580017 367.652649,363.400391 368.449890,360.761597 
M331.978882,149.509583 
	C336.121063,148.513794 340.235443,149.636276 344.364136,149.681747 
	C359.524384,149.848648 355.736847,148.932007 355.476318,136.904419 
	C355.378845,132.404160 352.840485,130.008652 348.055725,130.269089 
	C345.081543,130.431000 342.088928,130.235001 339.104584,130.233398 
	C326.953400,130.226883 326.570953,130.572998 325.062988,142.762405 
	C324.203491,149.710022 324.210632,149.717819 331.978882,149.509583 
M446.086517,226.729202 
	C444.042114,229.124039 443.648651,231.869614 447.319427,232.146255 
	C454.235016,232.667450 461.221039,232.310471 468.176117,232.206573 
	C469.653625,232.184494 471.431335,231.839844 471.594421,229.949310 
	C471.965668,225.645889 472.072235,221.311371 471.393066,217.027679 
	C471.129608,215.365997 469.744812,214.479172 468.119293,214.462814 
	C461.970062,214.401001 455.819214,214.405457 449.670197,214.482498 
	C448.129333,214.501816 446.671600,215.038239 446.252655,216.821945 
	C445.958710,218.073456 446.381622,218.998444 447.484772,219.799271 
	C449.020630,220.914246 450.258240,221.275787 451.807556,219.721329 
	C453.202881,218.321274 455.391876,217.618027 456.665283,219.320709 
	C458.441071,221.695114 461.864105,221.810715 462.665405,224.627777 
	C465.223053,224.400269 465.550720,221.357895 467.938080,221.540100 
	C467.889221,225.293228 465.877411,227.929260 462.524780,228.323410 
	C457.140839,228.956375 451.749207,229.315323 446.086517,226.729202 
M165.296661,282.464081 
	C165.116379,288.693970 165.661606,294.860199 166.980515,300.990845 
	C169.775742,285.306335 169.856628,269.420380 170.810410,253.606552 
	C170.829987,253.281799 170.762283,252.938705 170.671295,252.622589 
	C170.183853,250.929199 169.307861,249.224884 167.374817,249.531647 
	C164.733093,249.950867 165.892639,252.054352 166.292526,253.509491 
	C167.140350,256.594727 168.195374,259.965729 166.979904,262.809479 
	C164.351562,268.958801 165.634979,275.248199 165.296661,282.464081 
M368.685547,339.776520 
	C370.355255,340.167236 370.083466,338.955170 370.156036,338.008484 
	C370.484558,333.724335 370.783966,329.462738 372.316193,325.348175 
	C372.899811,323.781067 373.372375,321.850006 371.588501,319.497803 
	C368.373169,325.297119 363.292847,328.929199 357.989624,332.785004 
	C361.702972,335.615112 365.475891,336.758179 368.685547,339.776520 
M161.630798,331.708862 
	C161.552277,331.160706 161.354034,331.118225 161.075500,331.603973 
	C160.996979,331.740936 160.981674,331.924713 160.971985,332.089081 
	C160.286469,343.715973 161.929245,355.314972 161.271088,366.959808 
	C160.861221,374.211700 161.194931,381.505585 161.194931,388.780640 
	C161.624588,381.088898 163.127777,373.363373 163.168884,365.630066 
	C163.227966,354.513641 162.222488,343.391541 161.630798,331.708862 
M342.831665,337.245911 
	C344.635925,335.924530 346.440216,334.603119 349.127594,332.634979 
	C344.443390,331.279877 342.417999,327.072876 337.609009,326.552063 
	C337.121338,330.012085 337.283081,333.017914 338.169128,336.077820 
	C338.906677,338.625000 340.291931,338.674957 342.831665,337.245911 
M307.122620,284.167084 
	C308.466095,284.761200 309.348724,286.545959 312.236908,285.796143 
	C305.794281,280.374481 300.524261,274.728943 292.177429,274.013245 
	C295.638733,279.230591 302.279755,279.772644 307.122620,284.167084 
M540.394165,275.168121 
	C540.394165,285.400879 540.394165,295.633636 540.394165,305.866364 
	C540.852112,305.861328 541.309998,305.856262 541.767944,305.851196 
	C541.767944,293.969940 541.767944,282.088684 541.767944,270.207428 
	C541.551270,270.182190 541.334534,270.156952 541.117859,270.131714 
	C540.892700,271.538513 540.667542,272.945343 540.394165,275.168121 
M377.240906,302.283142 
	C372.126831,303.309448 371.619690,307.458527 371.221649,311.692841 
	C373.227325,308.733887 375.232971,305.774933 377.240906,302.283142 
z"/>
<path fill="#2e4885" opacity="1.000000" stroke="none" 
	d="
M307.396179,482.444427 
	C306.538605,488.959686 305.845703,495.033203 307.338165,501.162018 
	C308.882263,507.502960 311.783508,512.962708 316.954132,517.051453 
	C318.737885,518.461975 320.766296,519.107910 323.015076,518.046631 
	C325.424133,516.909729 324.854645,514.729736 324.749329,512.805786 
	C324.460358,507.527496 325.622742,502.578979 327.918701,497.867310 
	C329.476501,494.670441 332.095520,492.694214 335.473389,491.821716 
	C340.447357,490.536957 344.543579,493.808777 344.265259,498.964386 
	C343.951752,504.771942 341.173218,509.758545 338.573456,514.795349 
	C337.369995,517.126892 334.356537,518.954163 336.436981,522.322021 
	C338.737671,526.046509 342.320343,528.256958 346.324707,528.195190 
	C350.183899,528.135742 354.230988,527.054688 357.714966,524.937439 
	C361.140228,522.855957 363.915619,520.691650 361.956940,515.735291 
	C360.671753,512.483154 362.495331,509.772797 366.081024,509.102814 
	C369.676971,508.430908 372.256897,509.935974 373.276825,513.608337 
	C375.008575,519.843628 377.944733,520.866821 383.147736,517.037964 
	C388.528107,513.078552 390.466217,507.859619 389.198303,501.298615 
	C387.872314,494.437073 386.815002,487.520477 383.444702,481.245453 
	C382.615570,479.701752 382.313904,477.988007 383.677338,476.604736 
	C385.135834,475.125031 386.821259,475.888824 388.273438,476.702057 
	C389.406006,477.336304 390.939545,478.096344 391.297302,479.141846 
	C394.784515,489.332306 398.682556,499.595184 396.250885,510.613556 
	C394.244507,519.704712 387.560455,524.337585 378.975067,526.628052 
	C376.894653,527.183105 374.963043,526.570312 373.264282,525.487976 
	C370.474274,523.710388 368.735107,524.316406 366.567017,526.893738 
	C360.140289,534.533386 345.148468,538.158203 337.700104,532.367004 
	C331.420685,527.484680 325.190308,525.332092 317.622955,524.000305 
	C309.522156,522.574646 305.504669,515.187073 303.143188,508.073883 
	C299.366821,496.698608 300.041901,485.128754 304.843964,473.975067 
	C306.270264,470.662201 308.227356,468.381287 313.013519,470.419250 
	C309.541534,473.822571 308.289337,477.842743 307.396179,482.444427 
M335.821472,503.842957 
	C335.659668,502.028229 334.849640,501.136627 333.479492,502.847107 
	C332.211823,504.429626 331.354218,506.368439 332.380188,508.583649 
	C334.953339,508.093842 335.124664,506.121826 335.821472,503.842957 
z"/>
<path fill="#2e4885" opacity="1.000000" stroke="none" 
	d="
M233.036194,454.823914 
	C249.357101,453.773102 265.374023,453.651672 280.353638,446.903107 
	C274.454559,454.869812 234.510223,460.453308 222.068802,455.418427 
	C225.669556,452.701416 229.278503,455.613586 233.036194,454.823914 
z"/>
<path fill="#2e4885" opacity="1.000000" stroke="none" 
	d="
M412.693939,422.860901 
	C407.357605,420.401428 401.384277,419.637329 397.494995,413.056091 
	C403.960205,417.235779 410.604858,418.311249 415.916718,422.315399 
	C415.189270,424.276581 414.000977,423.151093 412.693939,422.860901 
z"/>
<path fill="#2e4885" opacity="1.000000" stroke="none" 
	d="
M279.791077,430.017761 
	C275.628998,431.881592 271.641022,432.367310 266.170013,432.090271 
	C272.389038,430.052765 277.333405,428.369446 282.327850,426.850891 
	C283.307129,426.553131 284.471222,425.795227 285.679504,426.825867 
	C284.325653,428.800385 281.927307,428.798096 279.791077,430.017761 
z"/>
<path fill="#2e4885" opacity="1.000000" stroke="none" 
	d="
M191.074860,210.142090 
	C194.218903,209.346054 193.251160,211.536911 192.972931,212.671936 
	C192.413559,214.954010 190.670334,216.965820 188.376648,216.336411 
	C183.184494,214.911621 178.166931,214.992065 172.903763,215.809723 
	C170.182587,216.232468 168.385223,213.744034 167.911102,211.128036 
	C167.401138,208.314178 167.729675,205.569778 171.270233,204.429077 
	C172.829010,207.017120 168.061508,210.467834 172.862656,212.353790 
	C174.495255,210.307281 173.312210,206.275162 176.857742,205.701523 
	C179.772446,205.229935 179.604477,208.511398 180.875290,209.836319 
	C182.964996,210.404617 182.677444,207.297211 184.772720,207.870255 
	C187.552933,206.474731 185.012802,218.580704 191.074860,210.142090 
z"/>
<path fill="#2e4885" opacity="1.000000" stroke="none" 
	d="
M345.553955,139.712738 
	C348.864288,139.419464 347.708649,141.036667 346.933960,142.302170 
	C344.366486,146.496246 334.384491,147.875977 330.721649,144.588547 
	C327.681946,141.860382 328.042267,139.155792 331.846100,136.255432 
	C333.560974,136.394608 332.990204,138.559174 334.534851,139.134979 
	C334.783264,139.082870 335.340912,139.122284 335.680969,138.869278 
	C337.973206,137.164047 339.986877,136.424103 341.775177,139.621902 
	C342.587097,141.073776 344.030457,140.652130 345.553955,139.712738 
z"/>
</svg>